<svg id="Layer_1" data-name="Layer 1" xmlns="http://www.w3.org/2000/svg" viewBox="0 0 948 240"><path d="M80.81592,48v96H54.75342V48Zm95.15478,0v96h-19.875L118.26758,89.10938h-.60938V144H94.17383V48h20.15625l37.40625,54.75h.79687V48Zm67.312,27.84375a11.75466,11.75466,0,0,0-4.6875-8.625q-4.125-3.09375-11.29687-3.09375a21.93721,21.93721,0,0,0-8.22656,1.35938,11.34322,11.34322,0,0,0-5.0625,3.70312,9.07839,9.07839,0,0,0-1.75782,5.34375,7.88779,7.88779,0,0,0,1.07813,4.33594,10.21743,10.21743,0,0,0,3.1875,3.21093,22.6813,22.6813,0,0,0,4.78125,2.34376,47.22006,47.22006,0,0,0,5.90625,1.6875l8.53125,2.01562a58.05824,58.05824,0,0,1,11.76562,3.82031,35.44892,35.44892,0,0,1,9.11719,5.85938,24.07246,24.07246,0,0,1,5.90625,8.08593,26.10812,26.10812,0,0,1,2.13281,10.59376,26.6201,26.6201,0,0,1-4.5,15.32812,28.43684,28.43684,0,0,1-12.82031,9.98438q-8.36718,3.51561-20.13281,3.51562A53.46042,53.46042,0,0,1,206.814,141.75a29.50922,29.50922,0,0,1-13.52343-10.64062q-4.85157-7.07814-5.08594-17.67188h20.25a13.86914,13.86914,0,0,0,9.1875,12.77344,25.15734,25.15734,0,0,0,9.32812,1.61718,23.76861,23.76861,0,0,0,8.74219-1.45312,13.42279,13.42279,0,0,0,5.71875-4.00781,9.45068,9.45068,0,0,0,2.08594-5.92969,8.01591,8.01591,0,0,0-1.875-5.27344,14.41842,14.41842,0,0,0-5.41406-3.65625,57.26859,57.26859,0,0,0-8.83594-2.78906l-10.35938-2.53125q-12.23437-2.95312-19.28906-9.25781-7.05541-6.304-7.00781-16.99219a25.18315,25.18315,0,0,1,4.71094-15.32812,31.44751,31.44751,0,0,1,13.05468-10.24219,46.15079,46.15079,0,0,1,18.89063-3.67969,44.802,44.802,0,0,1,18.84375,3.67969,29.81208,29.81208,0,0,1,12.51562,10.26562,26.85232,26.85232,0,0,1,4.59375,15.21094ZM278.86084,144V48h36.60937q11.01491,0,18.60938,4.125A27.83,27.83,0,0,1,345.5874,63.49219a34.20263,34.20263,0,0,1,3.91406,16.52343,33.93052,33.93052,0,0,1-3.96093,16.59376,27.78515,27.78515,0,0,1-11.625,11.29687q-7.66407,4.07813-18.77344,4.07813H291.189V97.03125h21.32813a21.45417,21.45417,0,0,0,10.26562-2.17969,14.06886,14.06886,0,0,0,6-6,19.0231,19.0231,0,0,0,1.96875-8.83594A18.77685,18.77685,0,0,0,328.78271,71.25a13.68172,13.68172,0,0,0-6.02343-5.90625,22.31417,22.31417,0,0,0-10.33594-2.10937h-15.1875V144Zm86.062,0V48H426.1416V61.40625H380.71973V89.25H422.9541v13.40625H380.71973v27.9375h45.89062V144Zm159.4668-65.34375H511.124a23.08426,23.08426,0,0,0-9.1875-14.67187,25.61481,25.61481,0,0,0-7.71093-3.82032A30.54727,30.54727,0,0,0,485.2959,58.875a28.037,28.037,0,0,0-15.25733,4.26562,29.10293,29.10293,0,0,0-10.71093,12.5625Q455.39014,84,455.39014,96q0,12.04761,3.96093,20.34375A29.15465,29.15465,0,0,0,470.062,128.88281,28.03077,28.03077,0,0,0,485.2959,133.125a30.90651,30.90651,0,0,0,8.88281-1.26562,25.18974,25.18974,0,0,0,7.6875-3.77344,23.88985,23.88985,0,0,0,5.88281-6.1875,23.235,23.235,0,0,0,3.375-8.41406h13.26563a38.89523,38.89523,0,0,1-4.61719,13.10156,36.048,36.048,0,0,1-8.57812,10.07812,37.69883,37.69883,0,0,1-11.76563,6.42188,44.17392,44.17392,0,0,1-14.22656,2.22656,40.07848,40.07848,0,0,1-37.2417-22.96875Q442.40576,111.28125,442.40576,96t5.55469-26.34375a40.14214,40.14214,0,0,1,37.2417-22.96875,44.5755,44.5755,0,0,1,14.03906,2.15625A38.07123,38.07123,0,0,1,511.00684,55.125a35.51067,35.51067,0,0,1,8.69531,10.05469A38.62754,38.62754,0,0,1,524.38965,78.65625Zm13.54687-21.14063V48h71.20313v9.51562H578.8584V144H568.21777V57.51562ZM628.68555,144V48h30.70312q9.9375,0,16.75781,3.65625A24.64964,24.64964,0,0,1,686.459,61.75781a30.651,30.651,0,0,1,3.49219,14.83594A30.14245,30.14245,0,0,1,686.459,91.3125a24.509,24.509,0,0,1-10.28906,9.98438q-6.79687,3.61009-16.6875,3.60937H633.0918V97.45312h26.15625a27.71588,27.71588,0,0,0,12.5625-2.55468,17.172,17.172,0,0,0,7.59375-7.21875,22.9135,22.9135,0,0,0,2.53125-11.08594,23.43149,23.43149,0,0,0-2.55469-11.20313,17.68226,17.68226,0,0,0-7.61719-7.42968A27.00834,27.00834,0,0,0,659.1543,55.3125H636.79492V144Zm41.67187-43.35938L693.98242,144h-9.375L661.2168,100.64062ZM777.8877,48H783.419v63.5625a33.56392,33.56392,0,0,1-4.54688,17.46094,32.78477,32.78477,0,0,1-12.51562,12.09375,39.69953,39.69953,0,0,1-36.49219-.02344,32.67431,32.67431,0,0,1-17.08594-29.53125V48h5.53125v63.28125a29.091,29.091,0,0,0,3.79688,14.88281,27.29666,27.29666,0,0,0,10.52343,10.28906,33.77923,33.77923,0,0,0,30.9375,0,27.29661,27.29661,0,0,0,10.52344-10.28906,29.091,29.091,0,0,0,3.79688-14.88281Zm34.54687,0h2.625l39.1875,91.5h.375L893.80957,48h2.625v96h-3V57.375h-.375L855.93457,144h-3l-37.125-86.625h-.375V144h-3ZM54.7532,192l841.68116-36H54.7532Z"/></svg>